<?xml version="1.0" standalone="no"?>
<!DOCTYPE svg PUBLIC "-//W3C//DTD SVG 20010904//EN"
 "http://www.w3.org/TR/2001/REC-SVG-20010904/DTD/svg10.dtd">
<svg version="1.0" xmlns="http://www.w3.org/2000/svg"
 width="300.000000pt" height="300.000000pt" viewBox="0 0 300.000000 300.000000"
 preserveAspectRatio="xMidYMid meet">
<metadata>
Created by potrace 1.10, written by Peter Selinger 2001-2011
</metadata>
<g transform="translate(0.000000,300.000000) scale(0.100000,-0.100000)"
fill="#000000" stroke="none">
<path d="M1760 2529 c-252 -27 -297 -33 -320 -40 -25 -8 79 -4 170 7 163 18
205 21 293 23 115 3 154 -7 275 -67 57 -28 146 -112 173 -162 9 -16 21 -35 26
-42 16 -20 43 -109 48 -159 12 -101 28 -429 22 -429 -3 0 -13 43 -22 95 -10
53 -20 94 -22 91 -3 -2 2 -42 10 -88 28 -151 36 -373 22 -565 -4 -44 -2 -74 5
-78 7 -4 10 34 11 112 1 103 13 266 18 238 0 -5 8 -59 15 -120 8 -60 22 -170
32 -244 15 -114 15 -146 5 -210 -16 -98 -57 -182 -123 -252 -67 -70 -100 -93
-185 -126 -66 -26 -76 -27 -308 -31 -132 -1 -237 -1 -234 2 2 3 89 19 193 36
231 37 278 50 353 99 145 94 225 245 221 416 l-1 70 -7 -75 c-13 -147 -60
-258 -144 -338 -30 -29 -57 -52 -60 -52 -4 0 -23 -11 -44 -24 -59 -40 -270
-85 -467 -102 -38 -3 -86 -7 -105 -9 -19 -2 -107 -5 -195 -6 l-160 -2 110 -9
c61 -5 155 -10 210 -12 55 -2 197 -6 315 -11 183 -7 224 -5 277 8 128 33 229
103 296 204 108 163 111 259 26 728 -26 145 -29 185 -32 425 -5 355 -23 416
-162 556 -134 135 -272 172 -535 143z"/>
<path d="M832 2484 c-234 -62 -386 -263 -385 -504 0 -80 38 -359 50 -370 3 -3
3 18 -1 45 -36 268 -41 339 -27 420 32 182 175 337 365 396 23 7 103 12 195
12 118 0 140 2 91 8 -107 11 -232 9 -288 -7z"/>
<path d="M1133 2455 c-190 -30 -222 -38 -305 -82 -129 -67 -237 -212 -283
-378 -22 -81 -30 -327 -16 -535 6 -91 13 -262 15 -381 6 -251 19 -326 74 -419
73 -124 193 -207 343 -238 83 -17 147 -14 424 26 163 23 111 28 -67 6 -79 -10
-189 -19 -246 -22 -91 -3 -111 0 -175 23 -39 14 -96 42 -125 62 -54 37 -122
110 -122 132 0 6 -4 11 -8 11 -11 0 -48 83 -61 135 -6 22 -13 85 -16 140 -3
55 -8 148 -11 208 -3 59 -4 107 -1 107 3 0 15 -54 28 -120 13 -66 26 -120 30
-120 3 0 0 28 -7 63 -7 34 -18 100 -24 147 -7 47 -15 94 -17 105 -2 11 -6 40
-7 65 -2 25 -7 90 -11 144 -18 231 -7 414 30 502 7 18 12 34 10 34 -2 0 11 30
30 67 60 118 177 218 298 257 92 30 311 58 439 55 107 -2 136 5 63 15 -107 14
-138 14 -282 -9z"/>
<path d="M1482 2445 c2 -3 42 -7 89 -9 72 -4 76 -3 29 4 -64 9 -125 12 -118 5z"/>
<path d="M1072 2255 c-40 -17 -54 -52 -41 -97 8 -29 5 -42 -25 -103 -48 -96
-159 -265 -234 -354 -45 -53 -62 -81 -62 -103 0 -34 39 -78 70 -78 27 0 70 22
94 49 17 19 17 21 2 21 -23 0 -4 28 43 62 l38 27 -15 -44 c-8 -25 -19 -45 -26
-45 -6 0 -33 -38 -59 -84 -26 -47 -71 -118 -100 -158 -67 -93 -70 -102 -53
-142 18 -43 64 -63 105 -47 41 18 118 95 97 99 -19 4 -20 11 -1 36 7 10 18 15
24 11 13 -8 14 -38 2 -50 -5 -6 -14 -62 -20 -125 -6 -63 -16 -149 -23 -191 -6
-42 -8 -87 -5 -101 9 -35 90 -122 127 -138 47 -19 88 2 113 59 23 52 24 86 19
484 -3 204 -6 238 -18 233 -8 -3 -12 -1 -9 4 3 5 -1 24 -10 41 -24 46 -4 58
29 18 17 -20 24 -35 18 -41 -13 -13 26 -86 51 -100 17 -9 32 -8 101 4 31 5 28
-16 -4 -34 -35 -20 -47 -59 -31 -104 8 -22 11 -86 9 -186 -2 -140 -1 -156 19
-194 66 -125 199 -165 549 -165 220 0 278 6 330 35 73 41 107 129 69 182 -13
19 -12 31 11 115 27 103 26 131 -11 155 -42 27 -76 15 -110 -39 -68 -110 -117
-169 -153 -185 -31 -14 -69 -17 -222 -16 -102 1 -198 6 -215 11 -30 9 -30 10
-33 91 l-3 82 39 0 c21 0 75 3 118 6 78 7 79 7 62 -13 -58 -65 44 -174 148
-158 56 8 89 37 158 135 76 108 76 131 -2 201 l-58 51 26 28 c16 18 37 64 54
122 16 51 37 102 47 113 27 31 33 69 15 103 -18 35 -114 116 -164 141 -31 14
-36 14 -64 -2 -42 -24 -55 -21 -30 6 12 13 22 27 22 33 0 5 51 10 113 11 144
3 169 8 201 40 40 40 36 92 -10 137 -109 105 -195 136 -239 84 -22 -26 -31
-28 -192 -43 -92 -8 -231 -19 -308 -24 -135 -8 -141 -7 -155 13 -35 50 -122
118 -165 130 -11 3 -35 -1 -53 -9z m99 -79 c24 -18 51 -45 58 -60 14 -25 13
-28 -21 -64 -19 -20 -70 -83 -112 -139 -75 -100 -76 -102 -54 -114 36 -18 88
-71 88 -89 0 -9 -5 -21 -11 -27 -8 -8 2 -17 40 -33 91 -40 140 -115 111 -171
-19 -35 -46 -23 -79 35 -17 30 -44 71 -61 90 l-32 35 -27 -52 c-24 -45 -25
-53 -12 -63 15 -12 15 -3 21 -494 2 -159 0 -202 -13 -233 -20 -46 -39 -47 -78
-5 -59 64 -59 63 -44 168 8 52 17 142 20 200 3 58 8 140 10 183 3 42 1 77 -4
77 -5 0 -17 -12 -27 -27 -62 -97 -165 -186 -187 -164 -8 8 -8 16 -2 24 41 54
148 224 175 277 62 122 95 232 75 251 -2 3 -49 -39 -104 -93 -92 -90 -122
-110 -134 -90 -3 4 24 43 59 87 91 112 168 230 226 346 46 91 49 102 38 129
-24 59 15 67 81 16z m922 -66 c72 -54 84 -80 45 -102 -15 -8 -83 -14 -190 -16
-164 -4 -167 -5 -145 -23 24 -20 27 -14 -40 -102 -24 -31 -43 -59 -43 -63 0
-13 164 6 181 22 15 13 22 10 75 -30 33 -24 68 -54 78 -65 19 -21 19 -22 -2
-44 -12 -13 -36 -68 -53 -121 -36 -117 -60 -146 -119 -146 -37 0 -45 7 -41 33
1 9 -198 9 -302 1 -66 -6 -76 -10 -86 -30 -14 -32 -39 -30 -77 7 l-32 31 5 96
c4 87 -2 148 -23 235 -6 24 -4 27 18 27 14 0 37 -9 51 -20 23 -18 35 -20 126
-14 l100 7 31 73 c16 40 30 84 30 99 0 25 -2 26 -47 21 -27 -3 -112 -8 -189
-11 l-142 -6 -26 31 c-44 53 -39 56 107 64 138 7 438 32 520 42 34 5 53 13 65
30 25 34 49 29 125 -26z m-664 -205 c75 3 146 8 159 11 26 5 28 -6 7 -46 -15
-29 -17 -30 -93 -30 -52 1 -83 5 -96 15 -32 24 -93 19 -121 -10 -29 -28 -30
-41 -11 -92 18 -47 29 -133 17 -133 -5 0 -11 6 -14 14 -3 8 -24 25 -46 38 -27
15 -41 30 -41 43 0 23 -25 64 -52 83 -10 7 -18 17 -18 22 0 4 24 40 52 78 l53
70 33 -35 34 -34 137 6z m-7 -535 c13 0 29 5 36 12 9 9 12 8 12 -4 0 -9 3 -23
6 -32 9 -23 -33 -21 -91 5 -34 15 -44 24 -34 29 7 5 21 4 30 -1 10 -5 28 -9
41 -9z m388 11 c0 -5 -46 -11 -102 -15 -57 -4 -132 -9 -168 -13 l-65 -6 19 22
c18 20 29 21 168 21 81 0 148 -4 148 -9z m151 -73 c77 -63 77 -65 33 -128 -93
-130 -132 -151 -201 -109 -40 25 -38 43 5 47 27 3 33 9 47 53 10 28 15 53 12
56 -8 7 -382 -8 -395 -16 -6 -4 -14 -47 -18 -96 -8 -114 7 -158 63 -182 52
-22 339 -30 444 -13 63 11 79 18 106 47 30 31 128 174 136 196 2 6 8 8 14 4 7
-5 2 -41 -18 -114 -29 -107 -29 -108 -9 -122 32 -22 26 -64 -14 -99 -46 -40
-100 -47 -351 -46 -290 2 -414 33 -462 120 -21 36 -22 50 -21 199 1 98 -2 168
-9 180 -24 46 19 60 72 25 23 -15 41 -19 75 -15 25 3 116 10 202 16 86 7 167
17 180 24 38 21 55 17 109 -27z m-156 -128 c0 -8 -11 -20 -24 -27 -22 -10 -27
-9 -39 8 -18 26 -9 36 30 35 22 -1 33 -6 33 -16z"/>
<path d="M1620 1710 c-85 -4 -159 -8 -165 -9 -6 0 -9 -34 -7 -83 l3 -83 207 3
c114 2 208 5 210 6 1 2 9 36 18 76 11 55 12 75 3 86 -12 15 -11 15 -269 4z
m214 -82 c-3 -13 -8 -25 -10 -27 -2 -2 -73 -6 -159 -9 l-155 -5 0 26 0 26 103
4 c56 1 130 4 165 5 61 2 63 1 56 -20z"/>
<path d="M616 971 c22 -120 138 -275 279 -371 52 -36 149 -80 175 -79 8 0 -13
11 -47 24 -178 68 -318 212 -390 400 -14 37 -21 47 -17 26z"/>
</g>
</svg>
